<?xml version="1.0" encoding="iso-8859-1"?>
<!-- Generator: Adobe Illustrator 19.0.0, SVG Export Plug-In . SVG Version: 6.00 Build 0)  -->
<svg version="1.1" id="Capa_1" xmlns="http://www.w3.org/2000/svg" xmlns:xlink="http://www.w3.org/1999/xlink" x="0px" y="0px"
	 viewBox="0 0 490.667 490.667" style="enable-background:new 0 0 490.667 490.667;" xml:space="preserve">
	<path d="M245.333,0C110.059,0,0,110.059,0,245.333s110.059,245.333,245.333,245.333s245.333-110.059,245.333-245.333
		S380.608,0,245.333,0z M373.333,298.667H249.749l19.115,19.115c9.152,9.131,14.165,21.291,14.165,34.219
		s-5.013,25.067-14.165,34.219c-9.152,9.152-21.291,14.165-34.219,14.165c-12.928,0-25.067-5.035-34.219-14.165L82.176,267.968
		c-12.48-12.48-12.48-32.768,0-45.248l118.251-118.251c18.283-18.261,50.133-18.261,68.416,0
		c9.173,9.131,14.208,21.291,14.208,34.197c0,12.907-5.013,25.067-14.165,34.219L249.749,192h123.584
		c29.419,0,53.333,23.936,53.333,53.333S402.752,298.667,373.333,298.667z"/>
</svg>
